# 3ds Max Wavefront OBJ Exporter v0.97b - (c)2007 guruware
# File Created: 28.10.2015 14:28:38

mtllib roomkey.mtl

#
# object node_02FDC318
#

v  2.6220 16.1063 -1.2244
v  3.1220 15.3425 -1.0748
v  2.9646 15.3937 -1.6850
v  2.8701 15.5591 -0.5354
v  2.4843 15.6772 -2.0118
v  2.3543 15.9094 -0.3819
v  1.9685 16.0315 -1.8583
v  1.8740 16.1968 -0.7047
v  1.7165 16.2441 -1.3189
v  -1.2638 10.3976 0.0945
v  -3.0433 10.8583 -0.1142
v  -3.2087 9.4370 0.0787
v  -2.7874 8.6260 0.2283
v  -2.2323 8.2677 0.3228
v  -0.1142 8.9803 0.3898
v  -1.3622 8.2520 0.3937
v  0.0906 8.8386 -0.3780
v  0.2520 7.2205 0.6732
v  0.3819 6.9921 -0.9016
v  0.0157 8.7559 -1.1850
v  -0.7480 10.0472 -0.0315
v  -0.6575 9.8819 -1.1850
v  -0.4961 9.8346 -0.5709
v  -0.3189 5.5039 0.8740
v  -1.1378 10.1732 -1.4803
v  -0.1890 5.2756 -0.7008
v  -1.6732 4.2913 0.9409
v  -1.5433 4.0591 -0.6378
v  -3.0630 10.8622 -0.9213
v  -1.7441 10.6890 -0.2047
v  -4.8189 10.4724 -0.2008
v  -1.9016 10.7362 -0.8110
v  -4.6969 10.2520 -1.7795
v  -1.6535 10.5236 -1.3543
v  -2.9173 10.6339 -1.6929
v  -6.0512 9.0354 -1.7126
v  -6.1732 9.2598 -0.1339
v  -6.6220 7.3189 -1.5118
v  -6.7441 7.5433 0.0669
v  -6.2559 5.5551 -1.2283
v  -6.3740 5.7835 0.3504
v  -5.0472 4.2205 -0.9409
v  -5.1693 4.4528 0.6378
v  -3.3228 3.6732 -0.7244
v  -3.4488 3.9055 0.8543
v  -2.1024 8.0472 -1.2520
v  -1.2283 8.0276 -1.1811
v  -2.6575 8.4016 -1.3504
v  -3.0827 9.2165 -1.5000
v  -5.6299 1.6378 3.0748
v  -4.9291 1.6260 1.4331
v  -5.7520 1.0551 2.0433
v  -4.5709 2.3701 2.2953
v  -3.8543 1.8228 3.0748
v  -4.6772 1.2520 3.6811
v  -3.8268 -0.7205 1.8543
v  -3.5315 -0.6654 2.3071
v  -5.2992 1.3150 2.8976
v  -4.6378 1.4764 1.7362
v  -4.4764 1.8858 2.2913
v  -5.4252 0.9331 2.3150
v  -3.9961 1.5945 2.7205
v  -4.7835 1.0512 3.3031
v  -0.9094 7.0512 -1.0157
v  -1.0394 7.2795 0.5591
v  -1.2677 5.9685 -0.8898
v  -1.4016 6.1969 0.6890
v  -2.1260 5.2008 -0.8465
v  -2.2520 5.4331 0.7283
v  -3.2480 4.9567 -0.9016
v  -3.3740 5.1890 0.6732
v  -4.3346 5.3031 -1.0394
v  -4.4606 5.5354 0.5394
v  -5.0984 6.1457 -1.2205
v  -5.2205 6.3740 0.3543
v  -5.3307 7.2559 -1.3976
v  -5.4528 7.4843 0.1772
v  -4.9724 8.3425 -1.5276
v  -5.0906 8.5669 0.0512
v  -4.1142 9.1102 -1.5669
v  -4.2362 9.3307 0.0118
v  4.8228 13.5197 -0.6772
v  2.5079 14.8307 -0.6535
v  4.6614 13.6850 -0.0433
v  2.5669 14.7205 -1.4252
v  4.7638 13.4961 -1.3504
v  3.6890 11.7913 -0.5197
v  1.6260 13.2874 -1.2953
v  3.6299 11.7677 -1.1929
v  1.5669 13.3976 -0.5236
v  3.5236 11.9567 0.1142
v  3.0512 11.8425 -0.5787
v  1.2165 12.9213 -0.5630
v  2.9213 11.9724 -0.0709
v  1.2677 12.8307 -1.1772
v  3.0039 11.8228 -1.1142
v  2.3701 10.8071 -0.4843
v  0.7047 11.9724 -1.0984
v  2.3228 10.7874 -1.0197
v  0.6535 12.0630 -0.4843
v  2.2402 10.9370 0.0236
v  -6.3504 3.3386 0.7165
v  -4.0118 4.5197 -1.9724
v  -4.5630 4.9252 -1.5236
v  -6.2441 2.5354 0.8307
v  -3.2087 6.2402 -0.1142
v  -4.0118 6.1142 -0.2402
v  -5.4409 4.2559 2.6890
v  -5.7953 4.5276 2.0000
v  -4.3622 4.7913 -2.6575
v  -7.0433 2.4094 0.7047
v  -3.3150 7.0433 -0.2283
v  -5.9961 4.6614 3.1339
v  -4.9173 5.1969 -2.2126
v  -7.1496 3.2126 0.5906
v  -4.1181 6.9213 -0.3543
v  -6.3504 4.9370 2.4488
v  -5.6614 1.2008 2.9055
v  -8.3701 3.3386 1.4213
v  -7.6457 3.5394 1.7441
v  -5.8937 0.4173 2.8740
v  -6.4173 4.2087 -0.1535
v  -6.2953 4.1417 0.6535
v  -3.9409 1.2874 1.2992
v  -4.3110 1.8031 1.8150
v  -8.7402 3.8543 1.9370
v  -5.7677 0.3465 3.6811
v  -6.1890 4.9961 -0.1220
v  -3.2165 1.4882 1.6220
v  -8.0157 4.0551 2.2598
v  -5.5394 1.1339 3.7126
v  -6.0630 4.9252 0.6850
v  -3.5866 2.0039 2.1378
# 133 vertices

vn 0.8392 0.5154 -0.1733
vn 0.8126 0.5621 0.1539
vn 0.6600 0.6051 -0.4453
vn 0.5953 0.7197 0.3573
vn 0.3885 0.7788 -0.4924
vn 0.3247 0.8929 0.3118
vn 0.1735 0.9412 -0.2899
vn 0.1464 0.9885 0.0385
vn 1.0000 0.0000 -0.0000
vn -0.0787 0.1431 0.9866
vn -0.0779 0.1416 0.9869
vn -0.0771 0.1409 0.9870
vn -0.0793 0.1412 0.9868
vn -0.0778 0.1412 0.9869
vn 0.9884 0.1385 0.0615
vn 0.9498 0.2315 0.2105
vn 0.9766 0.1851 -0.1095
vn 0.8315 0.5420 0.1217
vn 0.8509 0.5088 -0.1310
vn 0.8316 0.5249 0.1816
vn 0.8616 0.4706 -0.1902
vn 0.9460 -0.3004 0.1216
vn 0.5373 0.5661 0.6252
vn 0.6412 0.3834 -0.6648
vn 0.6628 -0.7314 0.1607
vn 0.6636 -0.7303 0.1621
vn 0.1293 0.9916 0.0017
vn -0.2128 0.9770 0.0100
vn 0.1029 0.9934 0.0507
vn -0.2738 0.9494 -0.1538
vn 0.1315 0.9421 -0.3086
vn -0.1849 0.9323 -0.3108
vn 0.1514 0.9553 -0.2541
vn 0.1453 0.8153 0.5606
vn -0.6645 0.7313 -0.1535
vn -0.6632 0.7321 -0.1553
vn 0.2514 0.6332 -0.7321
vn -0.9465 0.3012 -0.1160
vn -0.9766 -0.2101 -0.0456
vn -0.9763 -0.2121 -0.0424
vn -0.7449 -0.6659 0.0406
vn -0.7450 -0.6658 0.0404
vn -0.3135 -0.9427 0.1145
vn -0.3141 -0.9426 0.1136
vn 0.2019 -0.9665 0.1583
vn 0.2022 -0.9664 0.1588
vn 0.0769 -0.1409 -0.9870
vn 0.0794 -0.1410 -0.9868
vn 0.0789 -0.1400 -0.9870
vn 0.0832 -0.1436 -0.9861
vn 0.0807 -0.1437 -0.9863
vn -0.6830 0.6676 -0.2963
vn -0.6809 0.6702 -0.2955
vn -0.0812 0.7791 0.6216
vn -0.0811 0.7782 0.6227
vn -0.3969 -0.3395 -0.8528
vn 0.6504 -0.1456 0.7455
vn 0.6819 -0.6692 0.2953
vn 0.6796 -0.6722 0.2936
vn 0.0826 -0.7791 -0.6214
vn 0.0842 -0.7830 -0.6163
vn 0.4741 0.2208 0.8523
vn -0.6042 0.0215 -0.7965
vn -0.4707 -0.7432 0.4755
vn -0.5407 -0.7562 0.3685
vn -0.6401 -0.5718 0.5131
vn -0.6696 -0.5613 0.4865
vn -0.5971 -0.6908 0.4079
vn -0.5271 -0.6801 0.5095
vn 0.8495 0.1698 -0.4995
vn 0.7504 0.4086 -0.5196
vn 0.7796 0.1570 -0.6063
vn 0.7336 0.3987 -0.5504
vn 0.7567 0.2468 -0.6054
vn 0.8264 0.2611 -0.4989
vn -0.7399 0.4391 -0.5096
vn -0.7365 0.4371 -0.5163
vn -0.2405 0.0695 -0.9682
vn -0.2092 0.0433 -0.9769
vn -0.7993 0.5478 0.2471
vn -0.7987 0.5473 0.2501
vn 0.3505 -0.3158 -0.8817
vn 0.3881 -0.3330 -0.8593
vn -0.3827 0.3298 0.8630
vn -0.3590 0.3117 0.8798
vn 0.7981 -0.5473 -0.2519
vn 0.2387 -0.0730 0.9683
vn 0.2071 -0.0466 0.9772
vn 0.7367 -0.4367 0.5163
vn 0.7358 -0.4356 0.5186
vn -0.9470 -0.3198 -0.0318
vn -0.9482 -0.3157 -0.0356
vn -0.0335 -0.9898 0.1382
vn -0.0290 -0.9903 0.1362
vn -0.9465 0.2991 -0.1214
vn -0.9454 0.3014 -0.1238
vn -0.5494 -0.8325 0.0712
vn -0.6624 0.7314 -0.1620
vn -0.5458 -0.8346 0.0737
vn -0.6636 0.7306 -0.1608
vn -0.2024 0.9663 -0.1587
vn 0.3149 0.9423 -0.1138
vn 0.3145 0.9424 -0.1136
vn 0.7444 0.6666 -0.0387
vn 0.7447 0.6662 -0.0389
vn 0.9764 0.2115 0.0450
vn 0.9473 -0.2984 0.1167
vn 0.9461 -0.3033 0.1139
vn 0.6627 -0.7330 0.1538
vn 0.6625 -0.7331 0.1536
vn 0.0921 -0.9852 0.1447
vn 0.0925 -0.9851 0.1449
vn -0.8861 -0.4634 -0.0060
vn -0.8869 -0.4620 -0.0073
vn -0.0805 0.1453 0.9861
vn -0.0808 0.1410 0.9867
vn -0.0782 0.1414 0.9869
vn -0.0799 0.1423 0.9866
vn -0.0795 0.1394 0.9870
vn -0.0796 0.1433 0.9865
vn -0.0794 0.1438 0.9864
vn -0.0758 0.1436 0.9867
vn -0.0792 0.1415 0.9868
vn -0.0820 0.1433 0.9863
vn -0.0768 0.1435 0.9867
vn -0.0759 0.1416 0.9870
vn -0.0777 0.1426 0.9867
vn -0.0778 0.1409 0.9870
vn -0.0793 0.1396 0.9870
vn -0.0794 0.1432 0.9865
vn -0.0791 0.1433 0.9865
vn -0.0792 0.1431 0.9865
vn 0.0788 -0.1435 -0.9865
vn 0.0817 -0.1420 -0.9865
vn 0.0784 -0.1415 -0.9868
vn 0.0771 -0.1434 -0.9867
vn 0.0803 -0.1421 -0.9866
vn 0.0804 -0.1406 -0.9868
vn 0.0792 -0.1421 -0.9867
vn 0.0786 -0.1409 -0.9869
vn 0.0785 -0.1414 -0.9868
vn 0.0798 -0.1422 -0.9866
vn 0.0792 -0.1408 -0.9869
vn 0.0791 -0.1408 -0.9869
vn 0.0785 -0.1403 -0.9870
vn 0.0766 -0.1413 -0.9870
vn 0.0816 -0.1420 -0.9865
vn 0.0817 -0.1418 -0.9865
vn 0.0807 -0.1422 -0.9865
vn 0.0808 -0.1407 -0.9867
vn 0.0800 -0.1420 -0.9866
vn 0.4895 0.8661 -0.1013
vn 0.4903 0.8673 -0.0864
vn 0.4874 0.8701 -0.0733
vn -0.6049 -0.7922 0.0809
vn -0.6022 -0.7954 0.0675
vn -0.6028 -0.7963 0.0505
vn 0.8327 -0.5512 -0.0537
vn 0.8008 -0.4945 0.3379
vn 0.8011 -0.4970 0.3336
vn 0.5042 0.8588 -0.0907
vn 0.5045 0.8593 -0.0846
vn 0.5026 0.8611 -0.0760
vn -0.5915 -0.8022 0.0817
vn -0.5890 -0.8051 0.0696
vn -0.5896 -0.8058 0.0553
vn 0.8320 -0.5522 -0.0531
vn 0.8016 -0.4970 0.3322
vn 0.6992 0.1866 0.6901
vn 0.6978 0.1905 0.6905
vn 0.0091 -0.7355 0.6775
vn 0.0099 -0.7359 0.6770
vn 0.2081 -0.8687 -0.4495
vn 0.2069 -0.8687 -0.4502
vn 0.8964 0.0561 -0.4397
vn 0.8967 0.0558 -0.4392
vn 0.2068 -0.8686 -0.4502
vn 0.2078 -0.8687 -0.4497
vn 0.8965 0.0562 -0.4395
vn 0.8976 0.0545 -0.4375
vn 0.6959 0.1940 0.6915
vn 0.6973 0.1905 0.6910
vn 0.0092 -0.7357 0.6772
vn 0.0068 -0.7348 0.6783
vn -0.6957 -0.1934 -0.6918
vn -0.6978 -0.1905 -0.6905
vn -0.0052 0.7344 -0.6787
vn -0.0072 0.7345 -0.6785
vn -0.2021 0.8679 0.4537
vn -0.2030 0.8682 0.4529
vn -0.8968 -0.0563 0.4388
vn -0.8961 -0.0587 0.4399
vn -0.2079 0.8688 0.4495
vn -0.2078 0.8688 0.4495
vn -0.8972 -0.0562 0.4380
vn -0.8969 -0.0576 0.4385
vn -0.6981 -0.1898 -0.6903
vn -0.6983 -0.1896 -0.6902
vn -0.0090 0.7349 -0.6781
vn -0.0062 0.7349 -0.6781
vn -0.0120 -0.0825 -0.9965
vn -0.0120 -0.0829 -0.9965
vn -0.1687 0.1983 0.9655
vn -0.1680 0.1986 0.9656
vn -0.0123 -0.0834 -0.9964
vn -0.0122 -0.0829 -0.9965
vn -0.1680 0.1988 0.9655
vn -0.1681 0.1987 0.9655
vn 0.4254 -0.0864 -0.9009
vn 0.4235 -0.0893 -0.9015
vn 0.3175 -0.9399 -0.1260
vn 0.3169 -0.9400 -0.1264
vn -0.7771 -0.6256 0.0680
vn -0.7770 -0.6261 0.0656
vn -0.6712 0.2274 -0.7055
vn -0.6705 0.2256 -0.7068
vn -0.7774 -0.6254 0.0676
vn -0.7773 -0.6256 0.0664
vn -0.6702 0.2227 -0.7080
vn -0.6710 0.2251 -0.7065
vn 0.4256 -0.0872 -0.9007
vn 0.4254 -0.0873 -0.9008
vn 0.3131 -0.9406 -0.1315
vn 0.3174 -0.9396 -0.1278
vn -0.4256 0.0872 0.9007
vn -0.4254 0.0873 0.9008
vn -0.3145 0.9401 0.1316
vn -0.3169 0.9400 0.1264
vn 0.7775 0.6253 -0.0674
vn 0.7772 0.6258 -0.0664
vn 0.6707 -0.2228 0.7075
vn 0.6705 -0.2256 0.7068
vn 0.7774 0.6254 -0.0676
vn 0.7767 0.6265 -0.0655
vn 0.6707 -0.2272 0.7061
vn 0.6710 -0.2251 0.7065
vn -0.4228 0.0891 0.9018
vn -0.3173 0.9399 0.1259
vn -0.3170 0.9399 0.1267
# 239 vertex normals

vt 0.4500 0.7800 0.0000
vt 0.5500 0.7800 0.0000
vt 0.8600 1.0000 0.0000
vt 0.8000 0.5900 0.0000
vt 0.6300 0.7500 0.0000
vt 0.5900 0.9100 0.0000
vt 0.5900 1.0900 0.0000
vt 0.0500 1.0000 0.0000
vt 0.1100 0.9100 0.0000
vt 0.1100 1.0900 0.0000
vt 0.0800 0.9100 0.0000
vt 0.0800 1.0900 0.0000
vt 0.0200 0.9400 0.0000
vt 0.0200 1.0600 0.0000
vt 0.0200 1.0000 0.0000
vt 0.1400 0.9100 0.0000
vt 0.0200 0.9100 0.0000
vt 0.0200 1.0900 0.0000
vt 0.1400 1.0900 0.0000
vt 0.2000 0.9100 0.0000
vt 0.2000 1.0900 0.0000
vt 0.2500 0.9100 0.0000
vt 0.2500 1.0900 0.0000
vt 0.3000 0.9100 0.0000
vt 0.3000 1.0900 0.0000
vt 1.0900 0.9700 0.0000
vt 0.9200 0.7800 0.0000
vt 1.0800 0.7800 0.0000
vt 0.9100 0.9700 0.0000
vt 1.0000 0.2800 0.0000
vt 0.4500 0.7200 0.0000
vt 0.4800 0.7200 0.0000
vt 0.5500 0.7200 0.0000
vt 0.5500 0.6600 0.0000
vt 0.4500 0.6600 0.0000
vt 0.3300 0.5300 0.0000
vt 0.8600 0.5300 0.0000
vt 0.8800 0.5900 0.0000
vt 0.8800 0.6300 0.0000
vt 0.8800 0.6600 0.0000
vt 0.8800 0.5600 0.0000
vt 0.8800 0.6900 0.0000
vt 0.8800 0.7200 0.0000
vt 0.5300 0.5900 0.0000
vt 0.5000 0.5900 0.0000
vt 0.4700 0.5900 0.0000
vt 0.5500 0.5900 0.0000
vt 0.4200 0.5900 0.0000
vt 0.3900 0.5900 0.0000
vt 0.3400 0.5900 0.0000
vt 0.3700 0.5900 0.0000
vt 0.3300 0.5900 0.0000
vt 0.4200 0.8400 0.0000
vt 0.3300 0.8400 0.0000
vt 0.4200 0.7800 0.0000
vt 0.3300 0.7800 0.0000
vt 0.3300 0.7200 0.0000
vt 0.4200 0.7200 0.0000
vt 0.4200 0.9700 0.0000
vt 0.3700 0.9700 0.0000
vt 0.5500 0.9700 0.0000
vt 0.5000 0.9700 0.0000
vt 0.3300 0.9700 0.0000
vt 0.4500 0.9700 0.0000
vt 0.4500 0.9100 0.0000
vt 0.5000 0.9100 0.0000
vt 0.4200 0.9100 0.0000
vt 0.3700 0.9100 0.0000
vt 0.5500 0.9100 0.0000
vt 0.3300 0.9100 0.0000
vt 0.0200 0.5300 0.0000
vt 0.3000 0.8400 0.0000
vt 0.3000 0.5600 0.0000
vt 0.0200 0.8400 0.0000
vt 0.0200 0.0300 0.0000
vt 0.1900 0.2200 0.0000
vt 0.1900 0.0300 0.0000
vt 0.0200 0.2200 0.0000
# 78 texture coords

g node_02FDC318
usemtl material_02FFC058
s off
f 1/1/1 2/2/1 3/2/1 
f 1/1/2 4/2/2 2/2/2 
f 1/1/3 3/2/3 5/2/3 
f 1/1/4 6/2/4 4/2/4 
f 1/1/5 5/2/5 7/2/5 
f 1/1/6 8/2/6 6/2/6 
f 1/1/7 7/2/7 9/2/7 
f 1/1/8 9/2/8 8/2/8 
f 10/3/9 11/4/9 10/3/9 
f 10/3/10 11/4/10 12/5/10 
f 10/3/11 12/5/11 13/6/11 
f 10/3/12 13/6/12 14/7/12 
f 10/3/9 10/3/9 15/4/9 
f 10/3/13 16/5/13 15/4/13 
f 10/3/14 14/6/14 16/5/14 
f 17/8/15 18/9/15 19/10/15 
f 17/8/16 15/11/16 18/9/16 
f 17/8/17 19/10/17 20/12/17 
f 17/8/18 21/13/18 15/11/18 
f 17/8/19 20/12/19 22/14/19 
f 17/8/20 23/15/20 21/13/20 
f 17/8/21 22/14/21 23/15/21 
f 18/9/22 24/16/22 19/10/22 
f 15/11/23 21/13/23 10/17/23 
f 20/12/24 25/18/24 22/14/24 
f 24/16/22 26/19/22 19/10/22 
f 24/16/25 27/20/25 26/19/25 
f 27/20/26 28/21/26 26/19/26 
f 29/8/27 11/12/27 30/14/27 
f 29/8/28 31/10/28 11/12/28 
f 29/8/29 30/14/29 32/15/29 
f 29/8/30 33/9/30 31/10/30 
f 29/8/31 32/15/31 34/13/31 
f 29/8/32 35/11/32 33/9/32 
f 29/8/33 34/13/33 35/11/33 
f 11/12/34 10/18/34 30/14/34 
f 31/10/35 33/9/35 36/16/35 
f 31/10/36 36/16/36 37/19/36 
f 34/13/37 25/17/37 35/11/37 
f 36/16/38 38/20/38 37/19/38 
f 38/20/38 39/21/38 37/19/38 
f 38/20/39 40/22/39 39/21/39 
f 40/22/40 41/23/40 39/21/40 
f 40/22/41 42/24/41 41/23/41 
f 42/24/42 43/25/42 41/23/42 
f 42/24/43 44/22/43 43/25/43 
f 44/22/44 45/23/44 43/25/44 
f 44/22/45 28/20/45 45/23/45 
f 28/20/46 27/21/46 45/23/46 
f 25/3/9 25/3/9 46/6/9 
f 25/3/47 47/5/47 46/6/47 
f 25/3/48 20/4/48 47/5/48 
f 25/3/9 48/6/9 25/3/9 
f 25/3/49 48/6/49 49/5/49 
f 25/3/50 46/7/50 48/6/50 
f 25/3/51 49/5/51 35/4/51 
f 50/26/52 51/27/52 52/28/52 
f 50/26/53 53/29/53 51/27/53 
f 50/26/54 54/27/54 53/29/54 
f 50/26/55 55/28/55 54/27/55 
f 52/28/56 51/27/56 56/30/56 
f 55/28/57 57/30/57 54/27/57 
f 58/31/58 59/32/58 60/31/58 
f 58/31/59 61/32/59 59/32/59 
f 58/31/60 60/31/60 62/32/60 
f 58/31/61 62/32/61 63/32/61 
f 61/32/62 56/33/62 59/32/62 
f 62/32/63 57/33/63 63/32/63 
f 58/34/64 50/35/64 52/35/64 
f 58/34/65 55/35/65 50/35/65 
f 58/34/66 52/35/66 61/34/66 
f 58/34/67 63/34/67 55/35/67 
f 52/35/68 56/34/68 61/34/68 
f 63/34/69 57/34/69 55/35/69 
f 60/34/70 51/35/70 53/35/70 
f 60/34/71 59/34/71 51/35/71 
f 60/34/72 53/35/72 54/35/72 
f 60/34/73 54/35/73 62/34/73 
f 59/34/74 56/34/74 51/35/74 
f 54/35/75 57/34/75 62/34/75 
f 34/36/76 32/36/76 9/37/76 
f 34/36/77 9/37/77 7/37/77 
f 34/36/78 7/37/78 5/37/78 
f 34/36/79 5/37/79 25/36/79 
f 32/36/80 8/37/80 9/37/80 
f 32/36/81 30/36/81 8/37/81 
f 5/37/82 22/36/82 25/36/82 
f 5/37/83 3/37/83 22/36/83 
f 30/36/84 6/37/84 8/37/84 
f 30/36/85 10/36/85 6/37/85 
f 3/37/86 23/36/86 22/36/86 
f 3/37/86 2/37/86 23/36/86 
f 10/36/87 4/37/87 6/37/87 
f 10/36/88 21/36/88 4/37/88 
f 21/36/89 23/36/89 2/37/89 
f 21/36/90 2/37/90 4/37/90 
f 16/38/91 64/39/91 65/39/91 
f 16/38/92 47/38/92 64/39/92 
f 16/38/93 46/38/93 47/38/93 
f 16/38/94 14/38/94 46/38/94 
f 65/39/95 64/39/95 66/40/95 
f 65/39/96 66/40/96 67/40/96 
f 14/38/97 13/41/97 46/38/97 
f 66/40/98 68/42/98 67/40/98 
f 13/41/99 48/41/99 46/38/99 
f 68/42/100 69/42/100 67/40/100 
f 68/42/101 70/43/101 69/42/101 
f 70/43/101 71/43/101 69/42/101 
f 70/43/102 72/42/102 71/43/102 
f 72/42/103 73/42/103 71/43/103 
f 72/42/104 74/43/104 73/42/104 
f 74/43/105 75/43/105 73/42/105 
f 74/43/106 76/42/106 75/43/106 
f 76/42/106 77/42/106 75/43/106 
f 76/42/107 78/40/107 77/42/107 
f 78/40/108 79/40/108 77/42/108 
f 78/40/109 80/39/109 79/40/109 
f 80/39/110 81/39/110 79/40/110 
f 80/39/111 49/38/111 81/39/111 
f 49/38/112 12/38/112 81/39/112 
f 49/38/113 48/38/113 12/38/113 
f 48/38/114 13/38/114 12/38/114 
f 18/44/115 65/45/115 67/46/115 
f 18/44/116 16/47/116 65/45/116 
f 18/44/117 67/46/117 24/46/117 
f 18/44/118 15/47/118 16/47/118 
f 67/46/119 69/48/119 24/46/119 
f 69/48/120 27/49/120 24/46/120 
f 69/48/120 71/49/120 27/49/120 
f 71/49/121 45/50/121 27/49/121 
f 71/49/122 73/51/122 45/50/122 
f 73/51/123 43/52/123 45/50/123 
f 73/51/124 75/49/124 43/52/124 
f 75/49/125 41/50/125 43/52/125 
f 75/49/126 77/48/126 41/50/126 
f 77/48/127 39/49/127 41/50/127 
f 77/48/128 79/46/128 39/49/128 
f 79/46/117 37/46/117 39/49/117 
f 79/46/129 81/45/129 37/46/129 
f 81/45/130 31/44/130 37/46/130 
f 81/45/131 12/47/131 31/44/131 
f 12/47/132 11/47/132 31/44/132 
f 33/44/133 35/47/133 49/47/133 
f 33/44/133 49/47/133 80/45/133 
f 33/44/134 80/45/134 78/46/134 
f 33/44/135 78/46/135 36/46/135 
f 78/46/136 76/48/136 36/46/136 
f 76/48/137 38/49/137 36/46/137 
f 76/48/138 74/49/138 38/49/138 
f 74/49/139 40/50/139 38/49/139 
f 74/49/140 72/51/140 40/50/140 
f 72/51/141 42/52/141 40/50/141 
f 72/51/142 70/49/142 42/52/142 
f 70/49/143 44/50/143 42/52/143 
f 70/49/144 68/48/144 44/50/144 
f 68/48/145 28/49/145 44/50/145 
f 68/48/146 66/46/146 28/49/146 
f 66/46/147 26/46/147 28/49/147 
f 66/46/148 64/45/148 26/46/148 
f 64/45/149 19/44/149 26/46/149 
f 64/45/150 47/47/150 19/44/150 
f 47/47/151 20/47/151 19/44/151 
f 82/53/152 83/54/152 84/53/152 
f 82/53/153 85/54/153 83/54/153 
f 82/53/154 86/53/154 85/54/154 
f 87/55/155 88/56/155 89/55/155 
f 87/55/156 90/56/156 88/56/156 
f 87/55/157 91/55/157 90/56/157 
f 82/57/158 87/57/158 86/58/158 
f 82/57/159 91/58/159 87/57/159 
f 82/57/160 84/58/160 91/58/160 
f 86/58/158 87/57/158 89/58/158 
f 92/53/161 93/54/161 94/53/161 
f 92/53/162 95/54/162 93/54/162 
f 92/53/163 96/53/163 95/54/163 
f 97/55/164 98/56/164 99/55/164 
f 97/55/165 100/56/165 98/56/165 
f 97/55/166 101/55/166 100/56/166 
f 92/57/167 97/57/167 96/58/167 
f 92/57/168 101/58/168 97/57/168 
f 92/57/168 94/58/168 101/58/168 
f 96/58/167 97/57/167 99/58/167 
f 102/59/169 103/60/169 104/59/169 
f 102/59/170 105/60/170 103/60/170 
f 104/61/171 106/62/171 107/61/171 
f 104/61/172 103/62/172 106/62/172 
f 107/59/173 108/60/173 109/59/173 
f 107/59/174 106/60/174 108/60/174 
f 109/61/175 105/62/175 102/61/175 
f 109/61/176 108/62/176 105/62/176 
f 105/60/177 110/63/177 103/60/177 
f 105/60/178 111/63/178 110/63/178 
f 103/62/179 112/64/179 106/62/179 
f 103/62/180 110/64/180 112/64/180 
f 106/60/181 113/63/181 108/60/181 
f 106/60/182 112/63/182 113/63/182 
f 108/62/183 111/64/183 105/62/183 
f 108/62/184 113/64/184 111/64/184 
f 111/65/185 114/66/185 110/65/185 
f 111/65/186 115/66/186 114/66/186 
f 110/67/187 116/68/187 112/67/187 
f 110/67/188 114/68/188 116/68/188 
f 112/65/189 117/66/189 113/65/189 
f 112/65/190 116/66/190 117/66/190 
f 113/67/191 115/68/191 111/67/191 
f 113/67/192 117/68/192 115/68/192 
f 115/66/193 104/69/193 114/66/193 
f 115/66/194 102/69/194 104/69/194 
f 114/68/195 107/70/195 116/68/195 
f 114/68/196 104/70/196 107/70/196 
f 116/66/197 109/69/197 117/66/197 
f 116/66/198 107/69/198 109/69/198 
f 117/68/199 102/70/199 115/68/199 
f 117/68/200 109/70/200 102/70/200 
f 86/71/201 88/72/201 85/73/201 
f 86/71/202 89/74/202 88/72/202 
f 91/74/203 83/73/203 90/72/203 
f 91/74/204 84/71/204 83/73/204 
f 96/75/205 98/76/205 95/77/205 
f 96/75/206 99/78/206 98/76/206 
f 101/78/207 93/77/207 100/76/207 
f 101/78/208 94/75/208 93/77/208 
f 118/67/209 119/68/209 120/67/209 
f 118/67/210 121/68/210 119/68/210 
f 120/69/211 122/66/211 123/69/211 
f 120/69/212 119/66/212 122/66/212 
f 123/67/213 124/68/213 125/67/213 
f 123/67/214 122/68/214 124/68/214 
f 125/69/215 121/66/215 118/69/215 
f 125/69/216 124/66/216 121/66/216 
f 121/68/217 126/70/217 119/68/217 
f 121/68/218 127/70/218 126/70/218 
f 119/66/219 128/65/219 122/66/219 
f 119/66/220 126/65/220 128/65/220 
f 122/68/221 129/70/221 124/68/221 
f 122/68/222 128/70/222 129/70/222 
f 124/66/223 127/65/223 121/66/223 
f 124/66/224 129/65/224 127/65/224 
f 127/63/225 130/60/225 126/63/225 
f 127/63/226 131/60/226 130/60/226 
f 126/61/227 132/62/227 128/61/227 
f 126/61/228 130/62/228 132/62/228 
f 128/63/229 133/60/229 129/63/229 
f 128/63/230 132/60/230 133/60/230 
f 129/64/231 131/62/231 127/64/231 
f 129/64/232 133/62/232 131/62/232 
f 131/60/233 120/59/233 130/60/233 
f 131/60/234 118/59/234 120/59/234 
f 130/62/235 123/64/235 132/62/235 
f 130/62/236 120/64/236 123/64/236 
f 132/60/225 125/59/225 133/60/225 
f 132/60/237 123/59/237 125/59/237 
f 133/62/238 118/61/238 131/62/238 
f 133/62/239 125/61/239 118/61/239 
# 0 polygons - 254 triangles

#
# object node_02EBDBDF
#

v  5.8504 -14.5354 -2.8307
v  -4.1535 1.1693 0.0709
v  7.9094 -12.1024 -4.4724
v  -6.2126 -1.2638 1.7087
v  -2.3780 1.7323 3.1339
v  -4.4370 -0.7008 4.7717
v  9.6811 -11.5394 -1.4094
v  7.6220 -13.9724 0.2323
# 8 vertices

vn -0.4951 -0.1575 -0.8544
vn -0.4945 -0.1570 -0.8549
vn -0.6519 0.7173 0.2460
vn 0.4946 0.1568 0.8548
vn 0.4951 0.1576 0.8544
vn 0.6521 -0.7174 -0.2453
vn -0.5747 -0.6787 0.4572
vn -0.5745 -0.6786 0.4577
vn 0.5747 0.6787 -0.4572
vn 0.5743 0.6787 -0.4577
# 10 vertex normals

vt 0.2500 0.0300 0.0000
vt 0.9800 0.0300 0.0000
vt 0.5800 0.5900 0.0000
vt 0.6700 0.5900 0.0000
vt 0.2500 0.3100 0.0000
vt 0.9800 0.3100 0.0000
# 6 texture coords

g node_02EBDBDF
usemtl material_02FFC058
s off
f 134/79/240 135/80/240 136/79/240 
f 134/79/241 137/80/241 135/80/241 
f 137/81/242 138/82/242 135/81/242 
f 137/81/242 139/82/242 138/82/242 
f 139/80/243 140/83/243 138/84/243 
f 139/80/244 141/79/244 140/83/244 
f 141/82/245 136/81/245 140/82/245 
f 141/82/245 134/81/245 136/81/245 
f 141/79/246 137/80/246 134/79/246 
f 141/79/247 139/80/247 137/80/247 
f 136/79/248 138/80/248 140/79/248 
f 136/79/249 135/80/249 138/80/249 
# 0 polygons - 12 triangles

