# 3ds Max Wavefront OBJ Exporter v0.97b - (c)2007 guruware
# File Created: 28.10.2015 16:05:16

mtllib lettertokafei.mtl

#
# object node_02884043
#

v  -2.9016 2.7520 2.9016
v  -7.8110 7.1457 2.0866
v  -6.8425 8.1339 2.2205
v  -8.4567 5.7323 1.9409
v  -5.6181 8.7835 2.3425
v  -10.2244 -2.6929 1.1417
v  -4.0748 9.0039 2.4528
v  4.0354 -6.1417 0.0433
v  4.5276 8.3189 2.9488
v  -12.2283 -4.1811 0.6890
v  6.5630 9.8465 2.8898
v  -3.9646 -12.3150 -0.8228
v  12.2677 0.0906 1.0945
v  7.9567 9.9606 1.6535
v  -12.5354 -5.3346 -0.7441
v  -2.5866 3.1260 -2.1850
v  -4.5984 -9.8661 -1.3740
v  -12.0512 -3.9724 -2.1693
v  0.8740 -5.7717 -1.0472
v  1.5709 -2.2362 -1.1850
v  4.8386 -2.8110 -0.6260
v  10.1614 1.1575 0.2795
v  6.7402 10.0591 0.0276
v  -6.6220 -11.3780 -1.3386
v  12.1772 2.6575 0.7756
v  -10.2402 -2.7087 1.3740
v  4.5118 8.3031 3.1811
v  2.9803 -4.1929 -0.9213
v  4.4252 -6.6299 0.1378
v  2.7165 -4.4331 1.0984
v  -4.6654 -9.9449 0.3425
v  10.0906 1.0709 2.0394
v  -2.9528 -12.1417 -0.6969
v  11.8031 -1.1220 0.9724
v  9.5039 -1.4094 0.5984
v  -9.9291 -6.4961 -1.1417
v  -11.7165 2.5709 -1.7362
v  -9.6890 5.7047 -1.6102
v  7.6732 8.5984 0.4528
v  -4.9724 -13.6457 -0.9488
v  13.8228 0.3858 1.2008
v  12.1260 2.6024 1.5630
v  -6.6693 -11.4331 -0.5748
v  6.0197 9.5512 2.7953
v  -13.3543 3.0472 0.9449
v  -12.2480 5.2795 -1.9134
# 46 vertices

vn 0.1512 -0.0143 -0.9884
vn 0.1803 0.0190 -0.9834
vn 0.1192 -0.0383 -0.9921
vn 0.1970 0.0515 -0.9791
vn 0.0792 -0.0566 -0.9953
vn 0.0008 0.3065 -0.9519
vn 0.0526 -0.0617 -0.9967
vn -0.1434 0.1996 -0.9693
vn 0.1809 0.0552 -0.9820
vn 0.0490 -0.1037 -0.9934
vn -0.0323 0.1798 -0.9832
vn -0.0246 0.1977 -0.9799
vn -0.1146 0.1146 -0.9868
vn 0.0487 0.2301 -0.9719
vn -0.6341 -0.2352 -0.7366
vn 0.4991 0.6197 -0.6057
vn 0.0509 -0.0701 -0.9962
vn 0.1191 -0.0802 -0.9896
vn 0.1496 -0.0679 -0.9864
vn 0.1578 -0.0614 -0.9856
vn 0.1860 -0.0253 -0.9822
vn 0.1967 0.0479 -0.9793
vn 0.0427 -0.0804 -0.9958
vn 0.2031 0.0504 -0.9779
vn -0.1512 0.0143 0.9884
vn -0.1192 0.0383 0.9921
vn -0.1803 -0.0190 0.9834
vn -0.0792 0.0566 0.9953
vn -0.1844 -0.0270 0.9825
vn -0.0798 0.0565 0.9952
vn -0.3299 0.0063 0.9440
vn -0.0603 0.2620 0.9632
vn 0.1664 -0.0131 -0.9860
vn 0.1037 -0.0591 -0.9928
vn 0.3096 -0.2186 -0.9254
vn 0.2492 -0.2579 -0.9335
vn -0.0131 -0.2530 0.9674
vn 0.0929 -0.1734 0.9805
vn 0.0025 -0.1392 0.9903
vn -0.0061 -0.1605 0.9870
vn 0.1335 -0.3080 0.9420
vn 0.1183 -0.3192 0.9403
vn 0.1417 -0.3309 0.9330
vn 0.1469 -0.3376 0.9297
vn -0.1962 0.0945 0.9760
vn -0.1851 0.1027 0.9773
vn -0.2189 -0.0169 0.9756
vn -0.0687 0.0937 0.9932
vn -0.7569 -0.3614 0.5444
vn 0.4609 0.5581 0.6900
vn 0.1009 -0.0453 -0.9939
vn 0.1042 -0.0275 -0.9942
vn 0.1169 0.0069 -0.9931
vn -0.1009 0.0453 0.9939
vn -0.1042 0.0275 0.9942
vn -0.1169 -0.0069 0.9931
vn 0.0712 -0.1185 -0.9904
vn 0.2177 -0.1304 -0.9673
vn 0.2138 -0.1399 -0.9668
vn 0.2429 -0.0056 -0.9700
vn 0.2634 -0.2100 -0.9415
vn 0.1779 -0.1603 -0.9709
vn 0.2680 -0.2168 -0.9387
vn 0.2483 -0.1136 -0.9620
vn 0.6093 0.3364 0.7180
vn 0.5739 0.3159 0.7555
vn 0.7831 0.4974 -0.3733
vn 0.7178 0.4759 -0.5082
vn -0.5966 -0.5579 0.5769
vn -0.5918 -0.5530 0.5864
vn -0.6143 -0.5449 -0.5707
vn -0.5675 -0.4903 -0.6614
vn 0.1628 -0.0301 0.9862
vn 0.2294 -0.0021 0.9733
vn -0.1457 -0.2487 0.9575
vn -0.1946 -0.3113 0.9302
vn -0.1970 -0.3084 0.9306
vn 0.1342 -0.3364 0.9321
vn 0.2209 0.0098 0.9752
vn -0.0192 -0.2201 0.9753
vn -0.0335 -0.2066 0.9778
vn 0.0335 0.2066 -0.9778
vn 0.0192 0.2201 -0.9753
vn 0.1242 -0.0405 -0.9914
vn -0.1242 0.0405 0.9914
# 85 vertex normals

vt 0.7000 0.3400 0.0000
vt 0.7000 0.4400 0.0000
vt 0.7000 0.4100 0.0000
vt 0.7000 0.1900 0.0000
vt 1.0900 0.9800 0.0000
vt 0.9400 0.6400 0.0000
vt 0.9100 0.9800 0.0000
vt 1.0500 0.6400 0.0000
vt 1.0900 0.7200 0.0000
vt 0.9100 0.6400 0.0000
vt 0.3900 0.0200 0.0000
vt 0.7000 0.0200 0.0000
vt 0.6900 0.0900 0.0000
vt 0.6600 0.1700 0.0000
vt 0.3900 0.4800 0.0000
vt 0.3900 0.5900 0.0000
vt 0.8000 0.5300 0.0000
vt 0.8000 0.6100 0.0000
vt 0.6700 0.5300 0.0000
vt 0.8000 0.3900 0.0000
vt 0.5000 0.6400 0.0000
vt 0.5000 0.9800 0.0000
vt 0.0000 0.9800 0.0000
vt 1.0000 0.9800 0.0000
vt 0.0000 0.6400 0.0000
vt 1.0000 0.6400 0.0000
vt 0.0200 0.6100 0.0000
vt 0.1700 0.6100 0.0000
vt 0.1700 0.0200 0.0000
vt 0.0200 0.0200 0.0000
vt 0.6400 0.2700 0.0000
vt 0.6400 0.4700 0.0000
vt 0.6400 0.5300 0.0000
vt 0.6400 0.5200 0.0000
vt 1.2700 0.0000 0.0000
vt 0.7300 0.2800 0.0000
vt 0.7300 0.0000 0.0000
vt 0.8000 0.3600 0.0000
vt 1.2700 0.3600 0.0000
vt 0.9800 0.6100 0.0000
vt 0.8300 0.4500 0.0000
vt 0.8300 0.6100 0.0000
vt 0.9800 0.4500 0.0000
vt 1.0000 0.4500 0.0000
vt 1.0000 0.6100 0.0000
vt 0.9800 0.3900 0.0000
vt 0.8300 0.3900 0.0000
vt 0.3600 0.0200 0.0000
vt 0.2000 0.6100 0.0000
vt 0.3600 0.6100 0.0000
vt 0.2000 0.0200 0.0000
vt 0.6400 0.5000 0.0000
vt 0.7300 0.3600 0.0000
vt 0.6100 0.6100 0.0000
vt 0.4400 0.6100 0.0000
vt 0.6100 0.5800 0.0000
vt 0.4400 0.5800 0.0000
# 57 texture coords

g node_02884043
usemtl material_00B9CE40
s off
f 1/1/1 2/2/1 3/2/1 
f 1/1/2 4/3/2 2/2/2 
f 1/1/3 3/2/3 5/2/3 
f 1/1/4 6/1/4 4/3/4 
f 1/1/5 5/2/5 7/3/5 
f 1/1/6 8/4/6 6/1/6 
f 1/1/7 7/3/7 9/1/7 
f 1/1/8 9/1/8 8/4/8 
f 4/3/9 6/1/9 10/1/9 
f 7/3/10 11/1/10 9/1/10 
f 8/4/11 12/4/11 6/1/11 
f 8/4/12 9/1/12 13/4/12 
f 9/1/13 11/1/13 13/4/13 
f 6/1/14 12/4/14 10/1/14 
f 11/1/15 14/1/15 13/4/15 
f 12/4/16 15/1/16 10/1/16 
f 16/5/17 17/6/17 18/7/17 
f 16/5/18 19/8/18 17/6/18 
f 16/5/19 20/9/19 19/8/19 
f 16/5/20 21/8/20 20/9/20 
f 16/5/21 22/6/21 21/8/21 
f 16/5/22 23/7/22 22/6/22 
f 18/7/23 17/6/23 24/10/23 
f 23/7/24 25/10/24 22/6/24 
f 1/11/25 3/12/25 2/13/25 
f 1/11/26 5/13/26 3/12/26 
f 1/11/27 2/13/27 4/14/27 
f 1/11/28 7/14/28 5/13/28 
f 1/11/29 4/14/29 26/15/29 
f 1/11/30 27/15/30 7/14/30 
f 4/14/31 10/16/31 26/15/31 
f 27/15/32 11/16/32 7/14/32 
f 28/17/33 20/18/33 21/19/33 
f 28/17/34 19/19/34 20/18/34 
f 28/17/35 21/19/35 29/20/35 
f 28/17/36 29/20/36 19/19/36 
f 30/21/37 1/22/37 26/23/37 
f 30/21/38 27/24/38 1/22/38 
f 30/21/39 26/23/39 31/25/39 
f 30/21/40 32/26/40 27/24/40 
f 29/27/41 30/28/41 31/29/41 
f 29/27/42 32/29/42 30/28/42 
f 29/27/43 31/29/43 33/30/43 
f 29/27/44 34/30/44 32/29/44 
f 16/1/45 8/4/45 13/4/45 
f 16/1/46 12/4/46 8/4/46 
f 16/1/47 13/4/47 23/1/47 
f 16/1/48 18/1/48 12/4/48 
f 13/4/49 14/1/49 23/1/49 
f 18/1/50 15/1/50 12/4/50 
f 35/31/51 36/31/51 37/32/51 
f 35/31/52 37/32/52 38/33/52 
f 35/31/53 38/33/53 39/34/53 
f 35/35/54 37/36/54 36/37/54 
f 35/35/55 38/38/55 37/36/55 
f 35/35/56 39/39/56 38/38/56 
f 17/40/57 40/41/57 24/42/57 
f 17/40/58 33/43/58 40/41/58 
f 22/40/59 41/41/59 34/43/59 
f 22/40/60 25/42/60 41/41/60 
f 33/44/61 19/45/61 29/44/61 
f 33/44/62 17/45/62 19/45/62 
f 29/44/63 21/45/63 34/44/63 
f 21/45/64 22/45/64 34/44/64 
f 42/46/65 14/47/65 11/46/65 
f 42/46/66 41/47/66 14/47/66 
f 25/46/67 14/47/67 41/47/67 
f 25/46/68 23/46/68 14/47/68 
f 15/47/69 43/46/69 10/46/69 
f 15/47/70 40/47/70 43/46/70 
f 15/47/71 24/46/71 40/47/71 
f 15/47/72 18/46/72 24/46/72 
f 32/48/73 11/49/73 27/50/73 
f 32/48/74 42/51/74 11/49/74 
f 10/49/75 31/48/75 26/50/75 
f 10/49/76 43/51/76 31/48/76 
f 40/41/77 31/40/77 43/42/77 
f 40/41/78 33/43/78 31/40/78 
f 41/41/44 32/40/44 34/43/44 
f 41/41/79 42/42/79 32/40/79 
f 36/31/80 44/33/80 45/52/80 
f 36/31/81 35/31/81 44/33/81 
f 36/37/82 44/39/82 35/35/82 
f 36/37/83 45/53/83 44/39/83 
f 37/54/84 46/55/84 38/54/84 
f 38/56/85 46/57/85 37/56/85 
# 0 polygons - 86 triangles

